<?xml version="1.0" encoding="utf-8"?>
<!-- Generator: Adobe Illustrator 25.1.0, SVG Export Plug-In . SVG Version: 6.00 Build 0)  -->
<svg version="1.1"
	 id="Layer_1" xmlns:cc="http://creativecommons.org/ns#" xmlns:dc="http://purl.org/dc/elements/1.1/" xmlns:inkscape="http://www.inkscape.org/namespaces/inkscape" xmlns:rdf="http://www.w3.org/1999/02/22-rdf-syntax-ns#" xmlns:sodipodi="http://sodipodi.sourceforge.net/DTD/sodipodi-0.dtd" xmlns:svg="http://www.w3.org/2000/svg"
	 xmlns="http://www.w3.org/2000/svg" xmlns:xlink="http://www.w3.org/1999/xlink" x="0px" y="0px" viewBox="0 0 8.47 10.58"
	 style="enable-background:new 0 0 8.47 10.58;" xml:space="preserve">
<style type="text/css">
	.st0{fill:#C46E63;}
</style>
<g transform="translate(0,761.3334)">
	<path class="st0" d="M4.23-760.8c-2.04,0-3.7,1.66-3.7,3.7c0,2.04,1.66,3.7,3.7,3.7s3.7-1.66,3.7-3.7
		C7.94-759.14,6.28-760.8,4.23-760.8z M4.5-760.23c0.29,0.1,0.58,0.38,0.81,0.82c0.05,0.1,0.1,0.21,0.15,0.32
		c-0.3,0.07-0.62,0.11-0.96,0.12V-760.23z M3.97-760.23v1.27c-0.34-0.01-0.66-0.06-0.96-0.12c0.05-0.11,0.1-0.22,0.15-0.32
		C3.39-759.85,3.68-760.12,3.97-760.23L3.97-760.23z M5.58-759.98c0.31,0.15,0.59,0.34,0.84,0.57c-0.14,0.07-0.29,0.13-0.44,0.18
		c-0.06-0.15-0.13-0.3-0.2-0.43C5.72-759.77,5.65-759.88,5.58-759.98L5.58-759.98z M2.89-759.98c-0.07,0.1-0.14,0.21-0.2,0.32
		c-0.07,0.14-0.14,0.28-0.2,0.43c-0.16-0.05-0.31-0.11-0.44-0.18C2.29-759.64,2.58-759.83,2.89-759.98z M6.78-759
		c0.34,0.46,0.56,1.02,0.61,1.63H6.34c-0.02-0.48-0.09-0.94-0.2-1.36C6.37-758.8,6.59-758.91,6.78-759z M1.68-759
		c0.2,0.1,0.41,0.2,0.64,0.27c-0.11,0.42-0.18,0.87-0.2,1.36H1.07C1.12-757.97,1.34-758.53,1.68-759L1.68-759z M2.84-758.58
		c0.35,0.08,0.74,0.13,1.13,0.15v1.07H2.65C2.69-757.79,2.74-758.22,2.84-758.58z M5.63-758.58c0.1,0.37,0.16,0.78,0.18,1.21H4.5
		v-1.07C4.9-758.45,5.28-758.5,5.63-758.58z M2.12-756.84c0.02,0.48,0.09,0.94,0.2,1.35c-0.23,0.08-0.45,0.17-0.64,0.28
		c-0.34-0.46-0.61-1.02-0.61-1.63L2.12-756.84z M2.65-756.84h1.32v1.06c-0.4,0.02-0.78,0.07-1.13,0.15
		C2.74-755.99,2.67-756.4,2.65-756.84z M4.5-756.84h1.32c-0.02,0.43-0.08,0.84-0.18,1.21c-0.35-0.08-0.74-0.13-1.13-0.15V-756.84z
		 M6.34-756.84H7.4c-0.05,0.61-0.27,1.17-0.61,1.63c-0.2-0.11-0.41-0.2-0.64-0.28C6.26-755.9,6.33-756.35,6.34-756.84L6.34-756.84z
		 M4.5-755.24c0.34,0.01,0.66,0.06,0.97,0.12c-0.05,0.12-0.1,0.23-0.15,0.33c-0.24,0.44-0.52,0.72-0.81,0.82V-755.24z M3.97-755.24
		v1.27c-0.29-0.1-0.58-0.38-0.81-0.82C3.1-754.89,3.05-755,3-755.12C3.3-755.19,3.63-755.23,3.97-755.24z M5.98-754.98
		c0.16,0.05,0.31,0.11,0.45,0.18c-0.25,0.23-0.53,0.43-0.84,0.58c0.07-0.1,0.14-0.21,0.2-0.32C5.85-754.68,5.92-754.83,5.98-754.98z
		 M2.49-754.98c0.06,0.15,0.13,0.3,0.2,0.44c0.06,0.11,0.13,0.22,0.2,0.32c-0.31-0.15-0.6-0.34-0.84-0.58
		C2.18-754.87,2.33-754.93,2.49-754.98L2.49-754.98z"/>
</g>
<text transform="matrix(1 0 0 1 0 23.4667)" style="font-family:'HelveticaNeue-Bold'; font-size:5px;">Created by Rahmat Hidayat</text>
<text transform="matrix(1 0 0 1 0 28.4667)" style="font-family:'HelveticaNeue-Bold'; font-size:5px;">from the Noun Project</text>
</svg>
