<?xml version="1.0" encoding="utf-8"?>
<!-- Generator: Adobe Illustrator 25.1.0, SVG Export Plug-In . SVG Version: 6.00 Build 0)  -->
<svg version="1.1" id="Layer_1" xmlns="http://www.w3.org/2000/svg" xmlns:xlink="http://www.w3.org/1999/xlink" x="0px" y="0px"
	 viewBox="0 0 72 72" style="enable-background:new 0 0 72 72;" xml:space="preserve">
<style type="text/css">
	.st0{fill-rule:evenodd;clip-rule:evenodd;fill:none;stroke:#C46E63;stroke-width:4;stroke-miterlimit:10;}
</style>
<desc>Created with Sketch.</desc>
<g id="Page-1">
	<g id="Social-Icons---Rounded-Black" transform="translate(-152.000000, -43.000000)">
		<g id="Facebook" transform="translate(152.000000, 43.000000)">
			<path id="Rounded" class="st0" d="M10.64,5.17h49.44c3.9,0,7.91,2.32,7.91,6.22v49.44c0,3.9-3.16,7.06-7.06,7.06H11.49
				c-3.9,0-7.06-3.16-7.06-7.06V11.39C4.42,7.49,6.74,5.17,10.64,5.17z"/>
			<path class="st0" d="M57.8,16.17v8.22l-4.88,0.01c-3.82,0-4.56,1.82-4.56,4.47v5.88h9.11l-1.18,9.2h-7.93v23.93h-9.5V43.96h-7.95
				v-9.2h7.95v-6.78c0-7.88,4.8-12.17,11.84-12.17C54.06,15.8,56.95,16.06,57.8,16.17z"/>
		</g>
	</g>
</g>
</svg>
