<?xml version="1.0" encoding="utf-8"?>
<!-- Generator: Adobe Illustrator 25.1.0, SVG Export Plug-In . SVG Version: 6.00 Build 0)  -->
<svg version="1.1" id="Layer_1" xmlns="http://www.w3.org/2000/svg" xmlns:xlink="http://www.w3.org/1999/xlink" x="0px" y="0px"
	 viewBox="0 0 24 24" style="enable-background:new 0 0 24 24;" xml:space="preserve">
<style type="text/css">
	.st0{fill:none;stroke:#C46E63;stroke-width:2;stroke-linecap:round;stroke-linejoin:round;}
	.st1{fill:none;stroke:#C46E63;stroke-miterlimit:10;}
	.st2{fill:none;stroke:#000000;stroke-width:2;stroke-linecap:round;stroke-linejoin:round;}
	.st3{fill:#C46E63;}
</style>
<path class="st0" d="M7,2h10c2.76,0,5,2.24,5,5v10c0,2.76-2.24,5-5,5H7c-2.76,0-5-2.24-5-5V7C2,4.24,4.24,2,7,2z"/>
<path class="st1" d="M16,11.37c0.32,2.19-1.18,4.22-3.37,4.54s-4.22-1.18-4.54-3.37C7.76,10.36,9.27,8.32,11.46,8
	c0.39-0.06,0.78-0.06,1.17,0C14.37,8.26,15.74,9.63,16,11.37z"/>
<line class="st2" x1="17.5" y1="6.5" x2="17.5" y2="6.5"/>
<ellipse class="st3" cx="17.48" cy="6.43" rx="1.16" ry="1.16"/>
<ellipse class="st1" cx="12.06" cy="11.91" rx="3.56" ry="3.46"/>
<ellipse class="st1" cx="12.11" cy="11.9" rx="4.5" ry="4.38"/>
</svg>
