<?xml version="1.0" encoding="utf-8"?>
<!-- Generator: Adobe Illustrator 24.0.3, SVG Export Plug-In . SVG Version: 6.00 Build 0)  -->
<svg version="1.1" id="Layer_1" xmlns="http://www.w3.org/2000/svg" xmlns:xlink="http://www.w3.org/1999/xlink" x="0px" y="0px"
	 viewBox="0 0 151.7 155.2" style="enable-background:new 0 0 151.7 155.2;" xml:space="preserve">
<g id="Layer_1_1_">
	<path d="M74.5,24c-28.8,0-52.2,23.4-52.2,52.2s23.4,52.2,52.2,52.2s52.2-23.4,52.2-52.2S103.3,24,74.5,24z M78.5,40.1
		c11.3,8,18.7,21.2,18.7,36.1s-7.4,28.1-18.7,36.1V40.1z M70.4,111.9c-11-8-18.1-21-18.1-35.7c0-14.6,7.1-27.6,18.1-35.7V111.9z
		 M30.3,76.2c0-22.1,16.3-40.5,37.6-43.7c-14.3,9.4-23.7,25.4-23.7,43.7s9.5,34.4,23.7,43.7C46.6,116.7,30.3,98.4,30.3,76.2z
		 M81.8,119.8c14.2-9.4,23.5-25.4,23.5-43.6c0-18.3-9.5-34.3-23.7-43.7c21,3.4,37.1,21.7,37.1,43.7
		C118.7,98.1,102.7,116.3,81.8,119.8z"/>
</g>
<g id="l">
	<path d="M33.8,82.5V72.2h2.5v8.1h4v2.2C40.3,82.5,33.8,82.5,33.8,82.5z"/>
</g>
<g id="firstA">
	<path d="M63.8,82.5l-0.8-2h-4l-0.8,2h-2.7l4.3-10.3h2.4l4.3,10.3H63.8z M61,75l-1.3,3.5h2.6L61,75z"/>
</g>
<g id="r">
	<path d="M88.6,82.6l-2.3-4.1h-0.9v4.1H83V72.1h4c0.5,0,1,0.1,1.5,0.2s0.9,0.3,1.3,0.5s0.7,0.6,0.9,1c0.2,0.4,0.3,0.9,0.3,1.5
		c0,0.7-0.2,1.3-0.6,1.8s-0.9,0.8-1.6,1l2.7,4.5H88.6z M88.5,75.3c0-0.2-0.1-0.4-0.2-0.6s-0.2-0.3-0.4-0.4c-0.2-0.1-0.3-0.1-0.5-0.2
		c-0.2,0-0.4,0-0.6,0h-1.3v2.4h1.2c0.2,0,0.4,0,0.6-0.1c0.2,0,0.4-0.1,0.6-0.2s0.3-0.2,0.4-0.4C88.4,75.8,88.5,75.6,88.5,75.3z"/>
</g>
<g id="secondA">
	<path d="M114.5,82.5l-0.8-2h-4l-0.8,2h-2.7l4.3-10.3h2.4l4.3,10.3H114.5z M111.8,75l-1.3,3.5h2.6L111.8,75z"/>
</g>
</svg>
